<svg width="378" height="142" viewBox="0 0 378 142" fill="none" xmlns="http://www.w3.org/2000/svg">
<path d="M51.3885 115.24C40.9778 115.24 31.9325 112.936 24.2525 108.328C16.5725 103.805 10.6418 97.4053 6.4605 89.128C2.27917 80.8507 0.1885 71.08 0.1885 59.816C0.1885 55.5493 0.7005 50.8133 1.7245 45.608C2.83383 40.3173 4.58317 35.0693 6.9725 29.864C9.36183 24.5733 12.5618 19.752 16.5725 15.4C20.5832 11.048 25.4898 7.54933 31.2925 4.90399C37.0952 2.17333 43.9218 0.807999 51.7725 0.807999C58.5138 0.807999 64.4018 1.66133 69.4365 3.368C74.4712 4.98933 78.8232 7.07999 82.4925 9.63999C86.1618 12.1147 89.1912 14.7173 91.5805 17.448C94.0552 20.1787 96.0178 22.696 97.4685 25C98.9192 27.2187 99.9858 28.84 100.669 29.864L82.1085 44.072C80.2312 40.5733 78.0125 37.16 75.4525 33.832C72.8925 30.4187 69.7352 27.6027 65.9805 25.384C62.2258 23.1653 57.5752 22.056 52.0285 22.056C46.3112 22.056 41.5752 23.336 37.8205 25.896C34.0658 28.456 31.0792 31.6987 28.8605 35.624C26.7272 39.5493 25.2338 43.7307 24.3805 48.168C23.5272 52.52 23.1005 56.5733 23.1005 60.328C23.1005 64.3387 23.5272 68.3067 24.3805 72.232C25.2338 76.1573 26.6845 79.7413 28.7325 82.984C30.8658 86.2267 33.6818 88.8293 37.1805 90.792C40.7645 92.6693 45.2445 93.608 50.6205 93.608C56.5938 93.608 61.4578 92.5413 65.2125 90.408C69.0525 88.2747 72.2525 85.288 74.8125 81.448C77.3725 77.5227 79.7618 72.9573 81.9805 67.752L102.973 77.224C99.2178 84.9893 94.9938 91.7307 90.3005 97.448C85.6072 103.165 80.1032 107.56 73.7885 110.632C67.4738 113.704 60.0072 115.24 51.3885 115.24ZM115.338 113.832C115.338 108.627 115.338 101.971 115.338 93.864C115.423 85.672 115.508 76.584 115.594 66.6C115.764 56.616 115.978 46.12 116.234 35.112C116.575 24.104 116.959 13.096 117.385 2.088L139.146 1.95999C138.804 6.82399 138.463 12.7547 138.122 19.752C137.78 26.7493 137.482 34.2587 137.226 42.28C143.114 36.8187 149.855 34.088 157.45 34.088C162.655 34.088 166.964 35.0267 170.378 36.904C173.876 38.7813 176.692 41.256 178.826 44.328C180.959 47.3147 182.58 50.6 183.69 54.184C184.799 57.768 185.567 61.3093 185.994 64.808C186.42 68.2213 186.634 71.2507 186.634 73.896C186.634 79.528 186.591 85.1173 186.506 90.664C186.42 96.2107 186.335 101.075 186.25 105.256C186.25 109.437 186.25 112.381 186.25 114.088L163.85 114.216C164.191 110.888 164.404 107.048 164.49 102.696C164.66 98.344 164.746 93.864 164.746 89.256C164.831 84.5627 164.874 80.1253 164.874 75.944C164.874 62.12 161.631 55.208 155.146 55.208C153.183 55.208 151.007 55.72 148.618 56.744C146.228 57.768 143.924 59.3893 141.706 61.608C139.572 63.8267 137.866 66.7707 136.586 70.44C136.5 76.072 136.458 81.5333 136.458 86.824C136.458 91.688 136.5 96.2533 136.586 100.52C136.756 104.701 136.884 108.925 136.97 113.192L115.338 113.832ZM198.823 22.312C198.823 21.544 198.78 20.776 198.695 20.008C198.695 19.1547 198.695 18.216 198.695 17.192C198.695 14.4613 198.78 11.56 198.951 8.488C199.121 5.416 199.292 2.81333 199.463 0.679993L222.247 1.064C221.991 3.96533 221.692 7.25066 221.351 10.92C221.095 14.5893 220.924 18.3867 220.839 22.312H198.823ZM198.311 113.96C198.055 108.669 197.884 103.037 197.799 97.064C197.713 91.0053 197.671 84.9467 197.671 78.888C197.671 70.952 197.756 63.2293 197.927 55.72C198.097 48.2107 198.311 41.384 198.567 35.24L220.583 35.112C220.241 39.0373 220.028 43.9013 219.943 49.704C219.857 55.4213 219.815 61.4373 219.815 67.752C219.815 73.9813 219.857 80.1253 219.943 86.184C220.028 92.2427 220.113 97.7467 220.199 102.696C220.369 107.56 220.497 111.315 220.583 113.96H198.311ZM232.445 114.984C232.786 107.901 233.042 100.819 233.213 93.736C233.383 86.6533 233.469 79.656 233.469 72.744C233.383 66.4293 233.255 60.2 233.085 54.056C232.999 47.8267 232.786 41.8107 232.445 36.008L253.949 35.368C254.034 38.5253 254.162 41.768 254.333 45.096C257.063 41.6827 260.221 38.952 263.805 36.904C267.474 34.7707 271.655 33.704 276.349 33.704C278.141 33.704 280.445 33.96 283.261 34.472C286.077 34.984 288.935 35.9653 291.837 37.416L289.405 59.048C287.271 57.768 284.967 56.872 282.493 56.36C280.103 55.7627 278.098 55.464 276.477 55.464C271.015 55.464 266.365 57.9387 262.525 62.888C258.77 67.752 256.21 74.536 254.845 83.24C254.845 89.2133 254.759 94.9307 254.589 100.392C254.503 105.768 254.29 110.632 253.949 114.984H232.445ZM298.106 141.352C297.508 134.525 297.082 127.656 296.826 120.744C296.57 113.832 296.442 105.853 296.442 96.808C296.442 85.8 296.612 74.8347 296.954 63.912C297.295 52.9893 297.807 43.0053 298.49 33.96L320.506 34.6C320.25 36.5627 320.036 38.6533 319.866 40.872C322.938 38.824 326.223 37.3307 329.722 36.392C333.306 35.4533 336.932 34.984 340.602 34.984C345.295 34.984 349.86 35.752 354.298 37.288C358.735 38.7387 362.746 41.0853 366.33 44.328C369.914 47.4853 372.73 51.5813 374.778 56.616C376.911 61.6507 377.978 67.7093 377.978 74.792C377.978 81.7893 376.911 87.8907 374.778 93.096C372.644 98.3013 369.786 102.568 366.201 105.896C362.618 109.309 358.607 111.827 354.17 113.448C349.732 115.155 345.167 116.008 340.474 116.008C331.855 116.008 324.26 113.448 317.69 108.328C317.86 113.789 318.116 119.037 318.458 124.072C318.799 129.192 319.226 134.397 319.738 139.688L298.106 141.352ZM337.146 56.232C328.698 56.232 322.34 60.3707 318.074 68.648C317.818 73.768 317.647 78.9733 317.562 84.264C319.61 86.9947 322.255 89.384 325.498 91.432C328.74 93.3947 332.879 94.376 337.914 94.376C349.946 94.376 355.962 87.5067 355.962 73.768C355.962 70.0987 355.279 67.112 353.914 64.808C352.548 62.504 350.842 60.7547 348.794 59.56C346.746 58.28 344.655 57.4267 342.522 57C340.388 56.488 338.596 56.232 337.146 56.232Z" fill="#eee"/>
</svg>
